<svg id="Layer_1" data-name="Layer 1" xmlns="http://www.w3.org/2000/svg" viewBox="0 0 500 500"><defs><style>.cls-1{fill:#1b1e1c;}</style></defs><g id="OBJECTS"><path class="cls-1" d="M190,131.09a16.08,16.08,0,0,0-12.05-.76c-4.9,1.89-4.46,6.91-5.78,11.33-.25-.93,0-2-.33-3h.37s0-1.52-.45-1.68a5,5,0,0,0-3.13-.4.25.25,0,0,0-.24,0,14.37,14.37,0,0,0,9.9,17.75c.31.09.63.17.94.24a13.1,13.1,0,0,0,14.5-10.73C194.32,140.13,194,133.38,190,131.09Zm-12.65,11.49c-1.37,0-2.49-1.53-2.49-3.41s1.12-3.42,2.49-3.42,2.49,1.53,2.49,3.42-1,3.41-2.37,3.41Z"/><path class="cls-1" d="M325.2,126.84h-1.32a8,8,0,0,0-1.37.24,10.47,10.47,0,0,0-5.18,3.09,17.26,17.26,0,0,0-4,8,14.15,14.15,0,0,0,3.17,12.89,9.28,9.28,0,0,0,13.09.87,7.17,7.17,0,0,0,.68-.67,16.05,16.05,0,0,0,.29-21.92A8.45,8.45,0,0,0,325.2,126.84Zm-5.58,12.93c-1.36,0-2.49-1.53-2.49-3.42s1.13-3.37,2.49-3.37,2.45,1.53,2.45,3.37S321,139.77,319.62,139.77Z"/><path class="cls-1" d="M115.89,168.36a15.34,15.34,0,0,0-2.57,1.49c0,.24-9.72.44-11-3.46a9.07,9.07,0,0,1,.32-6.58,8.07,8.07,0,0,1,2.73-3.54c1-.68,4.9-2.29,5.06,0h0c.48,2.41,1.2,4.62,2.09,4s1.2-2.37,2-3.13,1.28,0,1.64-1.25a6.6,6.6,0,0,0-.36-2.49,18.6,18.6,0,0,0-1.2-4.38,16.77,16.77,0,0,0-4.94-5.62,47.85,47.85,0,0,0-5.59-4,8.37,8.37,0,0,0-3-1.61c-1.12,0-.92.36-1.6,1.12,0,0-3.74,3.78-2.57,4a43.58,43.58,0,0,1,9.55-.28,22,22,0,0,1,3.14,8.39h0c-6.83-2.49-13.42,4.42-12,12a14.37,14.37,0,0,0,12,10.56c2.16.48,3.29.93,4.69-.64S118.22,167.88,115.89,168.36Z"/><path class="cls-1" d="M417.45,419.72a61.71,61.71,0,0,0-26.67-46.14c-17.14-12.69-37.91-16.71-57-25.3-12.73-5.75-14.46-24.42-14.62-25.87,0,0,0-11-.4-15.42-.36-3.61,0-5.06-.28-8,.24-.2,11.72-1.16,28.83-15.14,23.41-19.11,28.11-47.55,29.36-75.94v-1.45a20.13,20.13,0,0,0,10.2-1.48c9.8-5,16.38-16.51,19.64-26.59a79.74,79.74,0,0,0,1.44-38.91,152.64,152.64,0,0,0-5.78-21.53c-1.53-4.46-3.37-10.24-8-12.61a8,8,0,0,0-4-1,29.12,29.12,0,0,0-7.15,1.88c1.53-5-3.77-44.17-7.35-48.75s-11.72-8-17.55-4.94A62.05,62.05,0,0,0,338,40.73c-12.57-4.65-31.48-6.22-49.83-6.46a17.59,17.59,0,0,0-.49-3.46c-3-10.92-21.24-36.38-51.52-29.71s-45.46,41.76-45.46,41.76h0c-8,.81-15.78,1.73-23.62,2.93a146.44,146.44,0,0,0-40.16,11.09,10.27,10.27,0,0,0-14.12,3.46,9.83,9.83,0,0,0-.93,2c-2.82,6.75,0,40.16,2.48,46.3a41.51,41.51,0,0,0-12.65-4.29,7.7,7.7,0,0,0-4,1c-4.54,2.37-6.39,8-8,12.61a154,154,0,0,0-5.79,21.53,79.75,79.75,0,0,0,1.45,38.91c3.25,10.08,9.8,21.57,19.64,26.59a21.54,21.54,0,0,0,14.21.72c0,3.49,0,7,.33,10.4s.24,5.9.68,8.84a10.67,10.67,0,0,0,.44,2.29c0,2.2.24,4.41.4,6.62.6,9.08.48,19.56,5.78,27.35A69.38,69.38,0,0,0,146.21,278a146.88,146.88,0,0,0,23.33,13.13A128.26,128.26,0,0,0,197.66,300l1.72.32c-.28.28-.44.56-.32.76,2.21,4.54,1.41,10.28,1.57,15.26s.32,9.76.36,14.66a24.78,24.78,0,0,1-2,12,37.83,37.83,0,0,1-8.83,9.75,63.25,63.25,0,0,1-22.25,14A167,167,0,0,0,147.42,374a36,36,0,0,0-12.93,11.16,26.56,26.56,0,0,0-4.62,6.51,41.16,41.16,0,0,0-2.81,7.51c-1.09,2.93-2,5.9-2.9,8.87a138.61,138.61,0,0,0-4.29,25.59c-.36,4-.57,8-.73,12a57.83,57.83,0,0,0-.2,6.31,20.06,20.06,0,0,0,1.81,6.79v3.69a222.3,222.3,0,0,0,1.61,23.21c.48,4,1,7.83,1.64,11.69.77,4.62,7.11,2.53,6.51-1.16-.8-5.1-1.49-10.21-2-15.31-1-8.87-1.44-17.83-1.89-26.74,0-4-.28-8.32-.44-12.49a128.2,128.2,0,0,1,7.35-43.21,59.25,59.25,0,0,1,7.67-14.66,37.92,37.92,0,0,1,11.49-7.59c8-3.66,17.27-5.91,25.7-9.32,0,.52,8.35,11,27.87,19-1,16.06-6,105.94-2.45,108.43s10.28-5.14,10.28-5.14l-1.24-100.64a124.79,124.79,0,0,0,13.85,3.77,260,260,0,0,0,53.62,6.11c71.4-.36,83.37-32.61,84.61-34.38A110.55,110.55,0,0,1,383,374.22a62.09,62.09,0,0,1,28.12,48.19c.64,11.21.24,22.49,0,33.74v16.78a60.79,60.79,0,0,0,0,8.32c.6,4.49,5.9,4.41,6.14,1.12s.28-7.27.32-10.88V454.66C417.77,443,418.25,431.25,417.45,419.72ZM391.27,109.61a18.41,18.41,0,0,1,4,6.7,122.84,122.84,0,0,1,6,21.37,76.35,76.35,0,0,1-2.13,41.73c-2,5.42-14.34,26.78-22.37,24.57.8-25.62-1.93-51.2-3-76.78a44.83,44.83,0,0,0,2.41-5.62,19.69,19.69,0,0,1,12-13.9,9.33,9.33,0,0,1,3,1.93ZM119,201c-7.23,12.73-23.53-15.3-25.86-21.56A76.74,76.74,0,0,1,91,137.68a127.12,127.12,0,0,1,6-21.37,17.72,17.72,0,0,1,4-6.7,9.69,9.69,0,0,1,2.93-1.93,19.58,19.58,0,0,1,12.25,13.9,37,37,0,0,0,1.93,4.65c.24,2.86.48,5.67.64,8v4.33a28.7,28.7,0,0,0,.44,4v22.21q0,17,.29,34.09a10.65,10.65,0,0,1,0,1.13Zm78.64,93.85a121.7,121.7,0,0,1-30.2-9.63,139.42,139.42,0,0,1-27-18.28c-9.08-8-11-17-12-28.63-.72-7.67-1.32-15.3-1.85-23,0-4.86-.32-9.76-.44-14.66-.28-11.37-.32-22.77-.36-34.18V141.62a24.15,24.15,0,0,0,12.05-8C145,124.47,145,82.66,142,74.19a41.35,41.35,0,0,0-10.4-13.94c1.37-.8,2.81-1.52,4.3-2.29a113.31,113.31,0,0,1,13.53-4.58A216.7,216.7,0,0,1,182.48,47c4.29-.56,8.63-1,13-1.45,12.05,8,45.86,28.8,64.25,26.83S287.82,50,288.7,37a117.67,117.67,0,0,1,47.67,7.59A54.84,54.84,0,0,1,354.84,56c-4.5,6.95-5.34,20.29-4,29.72,1.2,10.32.6,41.85,7.26,42.45a14.24,14.24,0,0,0,9.48-4.38c.73,22.09,2.93,44.18,3.3,66.23.44,26.1,0,58.19-16.91,79.75a71.44,71.44,0,0,1-33.58,22.94,125.08,125.08,0,0,1-29.15,4.69c-3.37.29-36.39,1.65-39.76,2H251C245,299,203.44,296.23,197.62,294.82ZM206,319.48a32.32,32.32,0,0,0,0-3.41,101.53,101.53,0,0,0-1.61-15.26c1.93.24,7.11,1.89,15.71,3.29,17.75,3,59.87,0,64.65-.2,15.75-1.08,21.13-1.89,26.83-2.73.32,2.77,1.24,10.4,1.36,13.41a132.92,132.92,0,0,0,1,14.38,42.16,42.16,0,0,0,1.12,5.22c-12.65,10.44-32.12,15.7-47.34,17.51a96.63,96.63,0,0,1-60.77-14.18,25.27,25.27,0,0,0,.36-6,101,101,0,0,0-1.24-12Zm146.82,43.17c-15.74,30.69-52,33.18-82.81,31.85A229.24,229.24,0,0,1,232.6,390c-13.78-2.89-44.5-19.19-44.18-19.51a59.07,59.07,0,0,0-6.43-5.27,59,59,0,0,0,6.39-3.37,26.72,26.72,0,0,0,9-9.44c.36-.6.68-1.24,1-1.92l1.69-1.61a25,25,0,0,0,5-6.35c1.64,1.17,3.37,2.29,5.14,3.34.48-1.41,14.13,7.63,23.53,9.56a97.23,97.23,0,0,0,30.12.68,144.38,144.38,0,0,0,27-5.82c8.79-2.78,25.62-11.61,26.18-10.57l-.48.28c2.37,2.25,4.58,4.7,6.75,7.19a18.81,18.81,0,0,0,2.08,1.33c9.28,5.18,20.33,7.67,30.2,11.6l2.66,1.13c-1.85,0-5,.32-5.55,1.44Z"/><path class="cls-1" d="M378.74,153.7a7.55,7.55,0,0,0-.36,2.49c.36,1.21.76.4,1.68,1.25s.93,2.45,2.05,3.13,1.57-1.69,2.05-4h0c0-2.45,4-.84,5.06,0a8.56,8.56,0,0,1,2.73,3.54,9.56,9.56,0,0,1,.32,6.58c-1.32,4-10.84,3.7-11,3.46a15.7,15.7,0,0,0-2.61-1.49c-2.33-.48.4,3.34,1.8,4.94s2.49,1.13,4.66.65a14.31,14.31,0,0,0,12.05-10.57c1.41-7.75-5.14-14.66-12.05-12h0a21.44,21.44,0,0,1,3.09-8.4,44.67,44.67,0,0,1,9.6.28c1.17,0-2.41-3.81-2.57-4-.72-.77-.48-1.17-1.64-1.13A9.36,9.36,0,0,0,390.5,140a47.74,47.74,0,0,0-5.58,4,16.6,16.6,0,0,0-4.9,5.91A17.8,17.8,0,0,0,378.74,153.7Z"/><path class="cls-1" d="M221.39,102.62c0-3.61-14.26-6.55-31.85-6.55s-31.8,2.94-31.8,6.55,14.25,6.55,31.8,6.55S221.39,106.23,221.39,102.62Z"/><path class="cls-1" d="M306.81,101.25c17.59,0,31.81-2.93,31.81-6.54s-14.22-6.55-31.81-6.55S275,91.09,275,94.71,289.22,101.25,306.81,101.25Z"/><path class="cls-1" d="M275.65,185.59c14.49-7.63,14.29-27.79,2.29-38.15a38.5,38.5,0,0,0-16.67-7.19c-10.08-2.17-14.62,0-19.4,9,0,0-.56.92,0,.88h2.25v-.2c8.35-1.89,18.51-9.36,26.11-3,5.06,4.21,7.51,16.9,7.06,23.21a19.67,19.67,0,0,1-12.89,16.79c-10,4-17.71-3.14-23-11,.56-3.45.92-6.54-3-3.25s-2,9.4.88,12.73C247.7,195.27,265.85,190.85,275.65,185.59Z"/><path class="cls-1" d="M242.39,223.38c6.07,0,9.08-8.47,8-14.54s-3.74-9.43-8-8.47c-26.06,6.06-44.85,11.52-47.91,21.81s8,58.19,9.12,63.65,11.49,2.41,15.74-2.41-5.26-42.45-5.26-50.32S236.33,223.38,242.39,223.38Z"/><path class="cls-1" d="M272.43,198.56c-4-1-6.66,2.41-8,8.48s1.85,14.53,8,14.53,28.48,1.81,28.48,9.72-9.68,45.46-5.46,50.28,14.53,8,15.78,2.45,12-53.33,9.07-63.65S298.42,204.63,272.43,198.56Z"/><path class="cls-1" d="M349.82,429c-12.53,1.6-41.36,4.82-41.28,6,0,0-.93,5,.56,4.46a25.48,25.48,0,0,0-1.08,7.71,8.67,8.67,0,0,0,4.69,4.38,21.73,21.73,0,0,0,2.9.28c-.33,8-.49,15.78-.73,23.69,0,3.74-1.52,11.09,1.29,14.18s12.81,1.45,16.7,1.32c7.72-.32,15.43-.48,23.14-.92,4.86-.28,16.46.2,20.08-4,2.33-2.86-.24-14-.49-17.43-.56-7.59-3-15.63-3.53-23.18a16.78,16.78,0,0,0,8.72-3c3.53-3.65,2.44-10.08-2.78-15.58C374.08,422.53,358.66,427.83,349.82,429Zm18.39,48c.61,8.83,3.3,9.72-8.47,11.2-4.62.61-9.52.41-14.18.57a82.43,82.43,0,0,1-14.65.56c-9.84-1.45-8.44-4-8.32-11.29,0-8.75.65-17.51.69-26.3,6.26-.56,12.69-2,18.47-2.89,9.36-1.53,18.55-2.49,28.11-3.3a127.9,127.9,0,0,0-2.13,15.35,154.6,154.6,0,0,0,.48,16.1Zm11.37-37.19c0,2.37-12.45,4.26-13.45,4.38-1.89.28-4,.24-5.83.36-5.78.4-11.52,1-17.27,1.61-5.06.52-27.3,2.12-27.3,2.73a28.91,28.91,0,0,1-3.46-.53c-.44-2.81-.8-6.7-1.08-9.95,9.56-6.39,24.09-4.7,35.14-6.15,7.55-1,20.4-4,28.11-4,3.9.29,5.38,3.78,5.14,11.57Z"/><path class="cls-1" d="M284.24,238.24s3.58-5,1.25-4.66l-8,1.29A121,121,0,0,0,248.5,238a48.67,48.67,0,0,1-20.72-3.62c-.77-.32,1.88,6.27,2.45,6.31A140.56,140.56,0,0,0,284.24,238.24Z"/><path class="cls-1" d="M257.86,259.52c3.81,0,9.27-1.28,9.11-3.37s-19.15-1.12-18.87.64C248.58,260.17,254,259.52,257.86,259.52Z"/></g></svg>